<svg xmlns="http://www.w3.org/2000/svg" viewBox="0 0 40.004 32.028"><defs><style>.a{fill:#bbb;}</style></defs><path class="a" d="M2333.918,472.069h-30.807l3.39-3.234a1.925,1.925,0,0,0,0-2.812,2.154,2.154,0,0,0-2.947,0l-6.947,6.629a1.925,1.925,0,0,0,0,2.813l6.947,6.629a2.158,2.158,0,0,0,2.948,0,1.925,1.925,0,0,0,0-2.812l-3.39-3.234h28.724v17.446h-30.925a1.991,1.991,0,1,0,0,3.977h33.008A2.038,2.038,0,0,0,2336,495.48V474.057a2.038,2.038,0,0,0-2.083-1.989Z" transform="translate(-2295.998 -465.44)"/></svg>